<svg width="12" height="12" viewBox="0 0 12 12" fill="none" xmlns="http://www.w3.org/2000/svg">
<path fill-rule="evenodd" clip-rule="evenodd" d="M4.93507 0.661784C5.37068 -0.220595 6.62916 -0.220595 7.06477 0.661784L8.30881 3.18173C8.33609 3.23699 8.38886 3.27536 8.44999 3.28424L8.45691 3.28525L10.9864 3.6889C11.6217 3.78318 12.0019 4.32765 12 4.87136C11.9989 5.16626 11.8876 5.4657 11.6538 5.70046L9.88877 7.66354L9.87695 7.67505C9.83278 7.7181 9.81266 7.78006 9.82307 7.84076L10.2983 10.6104C10.4647 11.5807 9.4462 12.3198 8.57531 11.8621L6.08722 10.5544C6.03257 10.5257 5.96727 10.5257 5.91261 10.5544L3.42452 11.8621C2.55364 12.3198 1.53512 11.5807 1.70158 10.6104L2.17676 7.84076C2.18718 7.78006 2.16706 7.7181 2.12289 7.67505L2.11106 7.66353L0.346181 5.70046C0.112363 5.4657 0.00106316 5.16626 7.43809e-06 4.87136C-0.00193905 4.32765 0.378258 3.78319 1.01363 3.6889L3.54984 3.28419C3.61097 3.27531 3.66375 3.23699 3.69103 3.18173L4.93507 0.661784Z" fill="#FFB300"/>
</svg>
